<?xml version="1.0" encoding="utf-8"?>
<!-- Generator: Adobe Illustrator 24.0.2, SVG Export Plug-In . SVG Version: 6.00 Build 0)  -->
<svg version="1.1" id="Calque_1" xmlns="http://www.w3.org/2000/svg" xmlns:xlink="http://www.w3.org/1999/xlink" x="0px" y="0px"
	 viewBox="0 0 300 300" style="enable-background:new 0 0 300 300;" xml:space="preserve">
<style type="text/css">
	.st0{fill:#4755A2;stroke:#000000;stroke-width:6;stroke-miterlimit:10;}
	.st1{fill:#FFFFFF;stroke:#000000;stroke-miterlimit:10;}
	.st2{fill:#5970B5;stroke:#000000;stroke-width:6;stroke-miterlimit:10;}
</style>
<rect x="52.1" y="97.9" class="st0" width="196.4" height="128.6"/>
<polygon class="st1" points="66.4,208.6 236.1,208.6 177.1,128.3 127.1,189 82.5,150 "/>
<circle class="st1" cx="118.2" cy="137.2" r="17.9"/>
<path class="st2" d="M199,72.9l-26-38.1l-3.5,9.6c-5.1-4.3-11.1-7.8-17.7-10.3c-30.4-11.1-64.1,4.6-75.1,35.1
	c-7.6,21-2.5,43.5,11.3,59c-4.2-12.2-4.4-25.9,0.4-39c11.1-30.4,44.7-46.1,75.1-35.1c0.7,0.3,1.5,0.6,2.2,0.8L159.2,73L199,72.9z"/>
</svg>
