<?xml version="1.0" encoding="utf-8"?>
<!-- Generator: Adobe Illustrator 19.0.0, SVG Export Plug-In . SVG Version: 6.00 Build 0)  -->
<svg version="1.1" id="Layer_1" xmlns="http://www.w3.org/2000/svg" xmlns:xlink="http://www.w3.org/1999/xlink" x="0px" y="0px"
	 viewBox="0 0 96 96" style="enable-background:new 0 0 96 96;" xml:space="preserve">
<style type="text/css">
	.st0{fill:#333333;}
</style>
<g id="XMLID_2_">
	<path id="XMLID_7_" class="st0" d="M40.9,37.2c-1.2,1.9-2.6,4.7-4.2,8.4c-0.5-0.9-0.8-1.7-1.1-2.2c-0.3-0.6-0.7-1.2-1.2-1.9
		s-1-1.3-1.6-1.7c-0.5-0.4-1.2-0.8-1.9-1.1c-0.8-0.3-1.6-0.4-2.5-0.4h-6.9c-0.3,0-0.5-0.1-0.7-0.3c-0.2-0.2-0.3-0.4-0.3-0.7v-5.9
		c0-0.3,0.1-0.5,0.3-0.7c0.2-0.2,0.4-0.3,0.7-0.3h6.9C33.5,30.3,37.7,32.6,40.9,37.2z M75.5,61.8c0,0.3-0.1,0.5-0.3,0.7l-9.8,9.8
		c-0.2,0.2-0.4,0.3-0.7,0.3c-0.3,0-0.5-0.1-0.7-0.3c-0.2-0.2-0.3-0.4-0.3-0.7v-5.9c-0.7,0-1.5,0-2.6,0s-1.9,0-2.5,0s-1.3,0-2.2,0
		s-1.6-0.1-2.2-0.2c-0.5-0.1-1.2-0.2-2-0.3s-1.4-0.3-1.9-0.6c-0.5-0.2-1.1-0.5-1.8-0.9s-1.3-0.8-1.8-1.2s-1.1-1-1.7-1.6
		c-0.6-0.6-1.2-1.3-1.7-2.1c1.2-1.9,2.6-4.7,4.2-8.4c0.5,0.9,0.8,1.7,1.1,2.2s0.7,1.2,1.2,1.9s1,1.3,1.6,1.7
		c0.5,0.4,1.2,0.8,1.9,1.1s1.6,0.4,2.5,0.4h7.9v-5.9c0-0.3,0.1-0.5,0.3-0.7c0.2-0.2,0.4-0.3,0.7-0.3c0.2,0,0.5,0.1,0.7,0.3l9.8,9.8
		C75.4,61.2,75.5,61.5,75.5,61.8z M75.5,34.3c0,0.3-0.1,0.5-0.3,0.7l-9.8,9.8c-0.2,0.2-0.4,0.3-0.7,0.3c-0.3,0-0.5-0.1-0.7-0.3
		c-0.2-0.2-0.3-0.4-0.3-0.7v-5.9h-7.9c-1,0-1.9,0.2-2.7,0.5c-0.8,0.3-1.5,0.8-2.1,1.4c-0.6,0.6-1.1,1.2-1.6,1.9s-0.9,1.4-1.4,2.4
		c-0.7,1.3-1.5,3-2.4,5.2c-0.6,1.4-1.1,2.5-1.5,3.4c-0.4,0.9-1,2-1.7,3.2c-0.7,1.2-1.3,2.3-2,3.1s-1.4,1.7-2.3,2.5
		c-0.9,0.9-1.8,1.6-2.8,2.1s-2,1-3.3,1.3c-1.2,0.3-2.5,0.5-3.9,0.5h-6.9c-0.3,0-0.5-0.1-0.7-0.3c-0.2-0.2-0.3-0.4-0.3-0.7v-5.9
		c0-0.3,0.1-0.5,0.3-0.7c0.2-0.2,0.4-0.3,0.7-0.3h6.9c1,0,1.9-0.2,2.7-0.5s1.5-0.8,2.1-1.4c0.6-0.6,1.1-1.2,1.6-1.9s0.9-1.4,1.4-2.4
		c0.7-1.3,1.5-3,2.4-5.2c0.6-1.4,1.1-2.5,1.5-3.4c0.4-0.9,1-2,1.7-3.2s1.3-2.3,2-3.1s1.4-1.7,2.3-2.5c0.9-0.9,1.8-1.6,2.8-2.1
		c1-0.5,2-1,3.3-1.3c1.2-0.3,2.5-0.5,3.9-0.5h7.9v-5.9c0-0.3,0.1-0.5,0.3-0.7c0.2-0.2,0.4-0.3,0.7-0.3c0.2,0,0.5,0.1,0.7,0.3
		l9.8,9.8C75.4,33.7,75.5,34,75.5,34.3z"/>
</g>
</svg>
